<svg xmlns="http://www.w3.org/2000/svg" viewBox="0 0 53.006 44">
  <defs>
    <style>
      .cls-1 {
        fill: #434343;
      }
    </style>
  </defs>
  <path id="Form_Maker" data-name="Form Maker" class="cls-1" d="M3.345,44A3.339,3.339,0,0,1,0,40.655V3.345A3.339,3.339,0,0,1,3.345,0H49.661a3.338,3.338,0,0,1,3.345,3.345v37.31A3.338,3.338,0,0,1,49.661,44ZM1.544,3.345v37.31a1.79,1.79,0,0,0,1.8,1.8H49.661a1.79,1.79,0,0,0,1.8-1.8V3.345a1.79,1.79,0,0,0-1.8-1.8H3.345A1.79,1.79,0,0,0,1.544,3.345ZM6.253,38.777A.759.759,0,0,1,5.481,38V28.69a.758.758,0,0,1,.772-.772H46.985a.758.758,0,0,1,.772.772V38a.774.774,0,0,1-.772.772Zm.772-1.544H46.213V29.462H7.025ZM6.253,25.345a.758.758,0,0,1-.772-.772V20.662a.759.759,0,0,1,.772-.772H46.985a.758.758,0,0,1,.772.772v3.911a.774.774,0,0,1-.772.772ZM7.025,23.8H46.213V21.434H7.025ZM36.2,17.291a.758.758,0,0,1-.772-.772V12.686a.758.758,0,0,1,.772-.772H47.011a.758.758,0,0,1,.772.772v3.833a.775.775,0,0,1-.772.772Zm.746-1.544h9.263v-2.29H36.95ZM22.463,17.291a.758.758,0,0,1-.772-.772V12.686a.758.758,0,0,1,.772-.772H33.27a.758.758,0,0,1,.772.772v3.833a.775.775,0,0,1-.772.772Zm.746-1.544h9.263v-2.29H23.209ZM6.253,17.291a.758.758,0,0,1-.772-.772V6.021a.758.758,0,0,1,.772-.772H17.06a.758.758,0,0,1,.772.772v10.5a.775.775,0,0,1-.772.772Zm.772-1.544h9.263V6.793H7.025ZM36.2,10.6a.758.758,0,0,1-.772-.772V6a.758.758,0,0,1,.772-.772H47.011A.758.758,0,0,1,47.783,6V9.829a.774.774,0,0,1-.772.772Zm.746-1.544h9.263V6.767H36.95ZM22.463,10.6a.758.758,0,0,1-.772-.772V6a.758.758,0,0,1,.772-.772H33.27A.759.759,0,0,1,34.043,6V9.829a.774.774,0,0,1-.772.772Zm.746-1.544h9.263V6.767H23.209Z"/>
</svg>
