<?xml version="1.0" encoding="utf-8"?>
<!-- Generator: Adobe Illustrator 25.2.3, SVG Export Plug-In . SVG Version: 6.00 Build 0)  -->
<svg version="1.1" xmlns="http://www.w3.org/2000/svg" xmlns:xlink="http://www.w3.org/1999/xlink" x="0px" y="0px"
	 viewBox="0 0 600 600" style="enable-background:new 0 0 600 600;" xml:space="preserve">
<style type="text/css">
	.st0{fill:#F68D88;}
	.st1{fill:#ECBDBB;}
	.st2{fill:none;stroke:#ECBDBB;stroke-linecap:round;stroke-linejoin:round;stroke-miterlimit:10;}
	.st3{fill:#9AB3DA;}
	.st4{fill:none;stroke:#6B81BE;stroke-linecap:round;stroke-linejoin:round;stroke-miterlimit:10;}
	.st5{fill:#E9F3FF;}
	.st6{fill:#FFFFFF;}
	.st7{fill:#6B81BE;}
	.st8{fill:#404B7C;}
	.st9{fill:none;stroke:#9AB3DA;stroke-linecap:round;stroke-linejoin:round;stroke-miterlimit:10;}
	.st10{opacity:0.5;fill:#9AB3DA;}
	.st11{fill:none;stroke:#DEEBFF;stroke-linecap:round;stroke-linejoin:round;stroke-miterlimit:10;}
	.st12{fill:none;stroke:#404B7C;stroke-linecap:round;stroke-linejoin:round;stroke-miterlimit:10;}
</style>
<g id="PLANT">
	<g>
		<g>
			<g>
				<path class="st0" d="M179.0751801,522.4592896c0,0-94.95298-40.5964661-91.3840561-149.4970398
					C87.691124,372.9622498,187.8003235,407.070282,179.0751801,522.4592896z"/>
				<g>
					<path class="st1" d="M126.6148605,423.7519531c-14.9532776,1.2842102-26.697197-3.8028564-35.4473648-10.3677673
						c1.9233551,8.9708252,4.5404358,17.3224487,7.6865692,25.0640564
						c7.4127426,2.8605042,16.2076263,4.1861267,26.5140228,2.6741028
						c17.462677-2.5618591,30.8565521-0.1010132,40.5717316,3.6588745
						c-2.2794342-4.7950439-4.7697601-9.3078308-7.4214935-13.5461426
						C149.7085114,426.1517944,138.9812927,422.6898804,126.6148605,423.7519531z"/>
					<path class="st1" d="M145.9155426,461.6808167c-14.8008728,4.1779785-27.5509338,1.1503296-37.4883347-3.8670349
						c5.3352814,9.0848999,11.3159332,17.1077881,17.4871445,24.1265564
						c6.6794739,0.5736389,14.0493164-0.1795349,22.0478668-2.9650574
						c10.5786285-3.6839905,19.9194489-5.0610962,27.9626465-5.1093445
						c-0.9804382-4.3856506-2.1400604-8.5962219-3.4501038-12.6439819
						C164.3691559,459.3202209,155.3798981,459.0092468,145.9155426,461.6808167z"/>
				</g>
			</g>
			<line class="st2" x1="93.74823" y1="383.4154968" x2="175.6416779" y2="515.2043457"/>
		</g>
		<g>
			<path class="st3" d="M169.9586792,522.6863403c0,0-39.485321-81.1636658-116.9308014-68.5325623
				C53.0278778,454.1537781,67.8183975,526.241394,169.9586792,522.6863403z"/>
			<path class="st4" d="M69.0093994,463.2405701c0.7252045,0.0974121,91.570343,55.3434143,91.570343,55.3434143"/>
		</g>
		<g>
			<path class="st3" d="M190.709549,522.8135986c0,0,50.9149628-48.6218872,23.1271667-103.1560669
				C213.8367157,419.6575317,163.7961426,447.7763672,190.709549,522.8135986z"/>
			<path class="st4" d="M210.8837433,433.6898804c0.0999603,0.5619202-19.3552551,81.1810913-19.3552551,81.1810913"/>
		</g>
		<g>
			<g>
				<path class="st0" d="M443.9089661,522.8352661c0,0,101.1830139-20.643158,119.6175842-128.0314331
					C563.5265503,394.803833,458.5995789,408.0531311,443.9089661,522.8352661z"/>
				<g>
					<path class="st1" d="M515.1721802,436.7145691c14.3883057,4.2691956,26.9160767,1.6513367,36.809021-3.0169678
						c-3.6904907,8.3997192-7.935791,16.0531921-12.5764771,23.0026245
						c-7.8369141,1.3091125-16.7185669,0.8365173-26.5093384-2.7200623
						c-16.5890198-6.026001-30.204071-6.3128357-40.4773865-4.5864258
						c3.1983643-4.2377625,6.5464478-8.1565857,9.9973755-11.7740784
						C492.0683594,434.4146423,503.2729797,433.1838989,515.1721802,436.7145691z"/>
					<path class="st1" d="M488.6287842,469.9796448c13.656311,7.0729675,26.7548828,6.6749573,37.4990845,3.7615662
						c-7.055481,7.8243408-14.5292664,14.4785156-21.9874878,20.1106873
						c-6.6581421-0.7832031-13.7253418-3.0050659-20.9990845-7.3442993
						c-9.6199951-5.7388306-18.492157-8.9687805-26.3608398-10.6357727c1.8435059-4.0983582,3.827301-7.9891357,5.9256592-11.690155
						C471.0286255,463.9512024,479.8963623,465.4568481,488.6287842,469.9796448z"/>
				</g>
			</g>
			<line class="st2" x1="555.4884644" y1="403.8231201" x2="448.7330933" y2="516.4204102"/>
		</g>
		<g>
			<g>
				<path class="st3" d="M438.6054077,462.9241333c0,0,2.0506592-48.425354,42.8909302-58.8008118
					C481.4963379,404.1233215,489.6604309,442.788147,438.6054077,462.9241333z"/>
			</g>
		</g>
	</g>
</g>
<g id="ORNAMENT_10">
	<g>
		<line class="st4" x1="512.3980103" y1="250.5014038" x2="512.3980103" y2="255.7900238"/>
		<line class="st4" x1="512.3980103" y1="261.4351807" x2="512.3980103" y2="266.7237854"/>
		<line class="st4" x1="520.5092163" y1="258.6126099" x2="515.2205811" y2="258.6126099"/>
		<line class="st4" x1="509.5754395" y1="258.6126099" x2="504.2868042" y2="258.6126099"/>
	</g>
</g>
<g id="ORNAMENT_9">
	<g>
		<line class="st4" x1="334.5262146" y1="39.6691513" x2="334.5262146" y2="42.3134575"/>
		<line class="st4" x1="334.5262146" y1="45.1360359" x2="334.5262146" y2="47.7803421"/>
		<line class="st4" x1="338.5818176" y1="43.7247467" x2="335.9375" y2="43.7247467"/>
		<line class="st4" x1="333.1149292" y1="43.7247467" x2="330.4706116" y2="43.7247467"/>
	</g>
</g>
<g id="ORNAMENT_8">
	<g>
		<line class="st4" x1="59.0575905" y1="270.0305786" x2="59.0575905" y2="277.0775452"/>
		<line class="st4" x1="59.0575905" y1="284.5995789" x2="59.0575905" y2="291.6465454"/>
		<line class="st4" x1="69.8655701" y1="280.838562" x2="62.8186073" y2="280.838562"/>
		<line class="st4" x1="55.2965698" y1="280.838562" x2="48.2496033" y2="280.838562"/>
	</g>
</g>
<g id="ORNAMENT_7">
	<g>
		<line class="st4" x1="65.1820831" y1="55.3997269" x2="65.1820831" y2="58.7288551"/>
		<line class="st4" x1="65.1820831" y1="62.2824173" x2="65.1820831" y2="65.6115417"/>
		<line class="st4" x1="70.2879868" y1="60.5056343" x2="66.9588623" y2="60.5056343"/>
		<line class="st4" x1="63.4053001" y1="60.5056343" x2="60.0761719" y2="60.5056343"/>
	</g>
</g>
<g id="ORNAMENT_6">
	<g>
		<line class="st4" x1="111.4932785" y1="339.7644348" x2="111.4932785" y2="343.3289185"/>
		<line class="st4" x1="111.4932785" y1="347.1336975" x2="111.4932785" y2="350.6981812"/>
		<line class="st4" x1="116.9601593" y1="345.2312927" x2="113.395668" y2="345.2312927"/>
		<line class="st4" x1="109.5908813" y1="345.2312927" x2="106.0263901" y2="345.2312927"/>
	</g>
</g>
<g id="ORNAMENT_5">
	<g>
		<line class="st4" x1="192.0274811" y1="107.4793472" x2="192.0274811" y2="111.9059067"/>
		<line class="st4" x1="192.0274811" y1="116.6308746" x2="192.0274811" y2="121.0574341"/>
		<line class="st4" x1="198.8165283" y1="114.2683945" x2="194.3899689" y2="114.2683945"/>
		<line class="st4" x1="189.6649933" y1="114.2683945" x2="185.2384338" y2="114.2683945"/>
	</g>
</g>
<g id="ORNAMENT_4">
	<circle class="st4" cx="60.0761719" cy="121.0574341" r="6.3741937"/>
</g>
<g id="ORNAMENT_3">
	<circle class="st4" cx="423.7274475" cy="147.8720093" r="3.1043868"/>
</g>
<g id="ORNAMENT_2">
	<circle class="st5" cx="117.5264664" cy="65.6909943" r="3.0695159"/>
</g>
<g id="ORNAMENT_1">
	<circle class="st5" cx="505.6796265" cy="187.2991943" r="5.1453905"/>
</g>
<g id="TEAM_3">
	<g>
		<path class="st3" d="M205.8672638,353.7912903v26.3699951c0,4.7275696-3.832428,8.5599976-8.5599976,8.5599976h-15.0700073
			l-3.2146759,6.5824585c-0.4860687,0.9953003-1.9045105,0.9953308-2.3905945,0.0000305l-3.2147369-6.582489h-15.0800171
			c-4.7199707,0-8.5499878-3.8300171-8.5499878-8.5599976v-26.3699951c0-4.7300415,3.8300171-8.5599976,8.5499878-8.5599976
			h38.9700317C202.0348358,345.2312927,205.8672638,349.0637512,205.8672638,353.7912903z"/>
		<g>
			<circle class="st6" cx="177.8286133" cy="359.611084" r="7.2621894"/>
			<path class="st6" d="M190.3594971,382.7500916h-25.0700073c0-6.9199829,5.6199951-12.539978,12.5400391-12.539978
				C184.7495117,370.2101135,190.3594971,375.8301086,190.3594971,382.7500916z"/>
		</g>
	</g>
</g>
<g id="TEAM_2">
	<g>
		<path class="st3" d="M507.2171631,66.0695953v32.726593c0,5.8671494-4.7562561,10.6234207-10.6234131,10.6234207h-18.7026978
			l-4.27771,8.7591705c-0.486084,0.9953003-1.904541,0.9953003-2.390625,0l-4.277771-8.7591705h-18.7151184
			c-5.8577271,0-10.6109924-4.7532654-10.6109924-10.6234207v-32.726593c0-5.8702393,4.7532654-10.6234245,10.6109924-10.6234245
			H496.59375C502.460907,55.4461708,507.2171631,60.2024384,507.2171631,66.0695953z"/>
		<g>
			<circle class="st6" cx="472.4196777" cy="73.2922668" r="9.0127697"/>
			<path class="st6" d="M487.9711914,102.0090027h-31.1132507c0-8.5880737,6.9747314-15.5627899,15.5628662-15.5627899
				C481.0088806,86.4462128,487.9711914,93.420929,487.9711914,102.0090027z"/>
		</g>
	</g>
</g>
<g id="TEAM_1">
	<g>
		<path class="st3" d="M457.2454529,202.3539886v24.6523285c0,4.4196014-3.5828247,8.0024109-8.0024109,8.0024109h-14.0884094
			l-2.9274292,5.994278c-0.4860535,0.9953003-1.9045105,0.9953003-2.3905945,0l-2.9274597-5.994278h-14.0977478
			c-4.4144287,0-7.993042-3.5786133-7.993042-7.9930573V202.344635c0-4.414444,3.5786133-7.9930573,7.993042-7.9930573h36.4316406
			C453.6626282,194.3515778,457.2454529,197.9343719,457.2454529,202.3539886z"/>
		<g>
			<circle class="st6" cx="431.0331421" cy="207.794693" r="6.7891474"/>
			<path class="st6" d="M442.7478027,229.4264679H419.310791c0-6.4692383,5.2539368-11.7231598,11.7232361-11.7231598
				C437.5032349,217.7033081,442.7478027,222.9572296,442.7478027,229.4264679z"/>
		</g>
	</g>
</g>
<g id="HOURGLASS">
	<g>
		<g>
			<path class="st3" d="M233.1495514,40.9189873l16.976059,20.4802055L59.1310692,219.7147217l-16.976059-20.4802094
				c-8.827404-10.6495209,26.7737083-54.7252808,79.5132446-98.4411316S224.3221588,30.2694588,233.1495514,40.9189873z"/>
			
				<ellipse transform="matrix(0.769897 -0.6381682 0.6381682 0.769897 -54.1194458 131.022995)" class="st7" cx="154.6300049" cy="140.5589905" rx="124.0368118" ry="25.0477123"/>
			<path class="st8" d="M242.3526306,67.8422318c-1.2687988,4.204361-5.9996796,13.5738678-19.3714905,29.3477859
				c-14.5347595,17.1487579-35.1070404,37.0137482-57.9346619,55.9355774s-46.1637115,35.4525299-65.7108154,46.554245
				c-17.9804688,10.2140198-28.064888,13.1249237-32.4316025,13.5918427
				c1.2722473-4.2001343,6.0031281-13.5696411,19.3749695-29.3435822c0.0133057-0.0181122,0.0259171-0.0285645,0.0392227-0.0466919
				c14.529808-17.1376038,35.0887756-36.984436,57.8954163-55.8888702s46.1223907-35.4254074,65.6576538-46.5243683
				c0.0202942-0.0097275,0.0328827-0.0201645,0.0531769-0.029892
				C227.904953,71.2242813,237.9893646,68.3133698,242.3526306,67.8422318z"/>
			<path class="st9" d="M209.8713226,81.4681702c-14.5298157,17.137619-35.0922394,36.9802628-57.89888,55.8847046
				s-46.1189346,35.4295807-65.6541901,46.5285339c14.529808-17.1376038,35.0887756-36.984436,57.8954163-55.8888702
				S190.3360596,92.567131,209.8713226,81.4681702z"/>
		</g>
		<path class="st10" d="M274.0280762,284.6028748c-92.5031281,76.6759033-207.1240234-71.331192-207.1240234-71.331192
			c1.2722473-4.2001343,6.0031281-13.5696411,19.3749695-29.3435822c0.0133057-0.0181122,0.0259171-0.0285645,0.0392227-0.0466919
			c14.529808-17.1376038,35.0887756-36.984436,57.8954163-55.8888702s46.1223907-35.4254074,65.6576538-46.5243683
			c0.0202942-0.0097275,0.0328827-0.0201645,0.0531769-0.029892c17.9804535-10.2139969,28.0648651-13.1249084,32.4281311-13.5960464
			C242.3526306,67.8422318,366.5312195,207.9269257,274.0280762,284.6028748z"/>
		<g>
			<path class="st0" d="M292.1769714,230.6896667c0,0.0200195-0.0100098,0.0400391-0.0100098,0.0599976
				c-3.6900024,16.7600098-12.6499634,30.8800049-27.1900024,42.9299927
				c-17.7199707,14.6900024-36.9199829,20.6700439-58.7099609,18.2800293
				c-40.7300415-4.4700317-80.3599854-37.1699829-104.5100098-61.2600098
				c-0.0100098-0.0100098-0.0100098-0.0100098-0.0200195-0.0200195
				C103.7969666,230.2897034,202.8669739,211.5696716,292.1769714,230.6896667z"/>
			<path class="st1" d="M292.3169861,230.719696c0,0-0.0499878,0.0100098-0.1500244,0.0299683
				c-4.1399536,0.7600098-93.3699951,16.7600098-190.4099731-0.0499878c-0.0200195,0-0.0300293-0.0100098-0.0499878-0.0100098
				c0,0,0.0100098,0,0.0299683-0.0100098c2.0599976-0.3899536,101.1300049-19.1099854,190.4400024,0.0100098
				C292.2269592,230.6996765,292.2669983,230.7096863,292.3169861,230.719696z"/>
		</g>
		<path class="st10" d="M267.5764771,276.819519c92.5031128-76.6759033,207.1240234,71.3311768,207.1240234,71.3311768
			c-1.2722473,4.2001343-6.0031433,13.5696411-19.375,29.3435974c-0.0132751,0.0180969-0.0259094,0.0285645-0.0392151,0.0466919
			c-14.5298157,17.1376038-35.0887756,36.984436-57.8954163,55.888855
			c-22.8066101,18.9044495-46.1223755,35.425415-65.6576538,46.5243835
			c-0.0202942,0.0097351-0.0328674,0.0201416-0.0531616,0.0298767
			c-17.9804688,10.2139893-28.0648804,13.1249084-32.4281311,13.5960388
			C299.2519226,493.5801392,175.0733185,353.4954529,267.5764771,276.819519z"/>
		<g>
			<path class="st0" d="M457.986969,350.219696c-2.3800049,3.9299927-6.4799805,9.8499756-13.4599609,18.0899658
				c-0.0400391,0.0300293-0.2700195,0.3099976-0.2700195,0.3099976c-14,16.4700317-33.8499756,35.6000366-55.9199829,53.8900146
				c-22.0300293,18.2700195-44.4700317,34.1900024-63.2300415,44.9000244l-0.2099609,0.0999756l-0.3900146,0.2399902
				c-9.3099976,5.2800293-15.8400269,8.1900024-20.1300049,9.7900391
				c-6.6900024-8.3800049-18.4899902-24.0800171-29.6099854-43.4899902
				c-0.2999878-0.5300293-0.6099854-1.0700073-0.9100342-1.6000366c-0.039978-0.0599976-0.0799561-0.1300049-0.1199951-0.2000122
				c-18.3999634-33.6499634-11.8499756-103.8899536,5.0400391-105.4799805c0,0,0.039978,0,0.1199951-0.0100098
				c17.1699829-1.5,37.2999878,21.3599854,101.6799927,15.3400269c40.3099976-3.7700195,64.0199585,1.8800049,76.1300049,6.6499634
				c0,0,0,0,0.0100098,0C457.1570129,349.2596741,457.5870056,349.7496643,457.986969,350.219696z"/>
			<path class="st1" d="M457.986969,350.219696c-56.3699951-7.9500122-80.0299683,22.6900024-123.789978,23.9599609
				c-43.7600098,1.2700195-66.9700317-41.9099731-55.4199829-47.4099731c0,0,0.039978,0,0.1199951-0.0100098
				c17.1699829-1.5,37.2999878,21.3599854,101.6799927,15.3400269c40.3099976-3.7700195,64.0199585,1.8800049,76.1300049,6.6499634
				c0,0,0,0,0.0100098,0C457.1570129,349.2596741,457.5870056,349.7496643,457.986969,350.219696z"/>
			<path class="st1" d="M264.9573975,289.158783c-11.282196,2.4344177-7.5873718,33.9674683,4.8182373,31.1947632
				S276.9164124,286.5782776,264.9573975,289.158783z"/>
			<path class="st1" d="M315.3684082,309.1106873c-6.265625,1.6089172-4.2136841,22.4491272,2.6758423,20.6166382
				S322.0099182,307.4052429,315.3684082,309.1106873z"/>
		</g>
		<g>
			<path class="st3" d="M482.4711609,341.7048645l16.9760437,20.4801941L308.4526672,520.5006104l-16.9760437-20.4802246
				c-8.8274231-10.6495361,26.7737122-54.7252808,79.5132446-98.4411316S473.6437683,331.0553284,482.4711609,341.7048645z"/>
			
				<ellipse transform="matrix(0.769897 -0.6381682 0.6381682 0.769897 -188.701767 359.3438721)" class="st7" cx="403.9515991" cy="441.3448792" rx="124.0368118" ry="25.0477123"/>
			<path class="st9" d="M491.6742249,368.6281128c-1.2687988,4.2043457-5.9996643,13.5738525-19.3714905,29.3477783
				c-14.5347595,17.1487427-35.1070251,37.0137329-57.9346619,55.9355774
				c-22.8276062,18.9218445-46.1636963,35.4525146-65.7108154,46.5542603
				c-17.9804688,10.2140198-28.0648804,13.1249084-32.4316101,13.5918274
				c1.2722473-4.2001343,6.0031433-13.5696411,19.375-29.3435669c0.0132751-0.0181274,0.0259094-0.028595,0.0392151-0.0466919
				c14.5298157-17.1376343,35.0887756-36.984436,57.8954163-55.8888855
				c22.8066101-18.9044495,46.1223755-35.425415,65.6576538-46.524353c0.0202942-0.0097351,0.0328674-0.0201721,0.0531616-0.0299072
				C477.2265625,372.0101624,487.3109741,369.0992432,491.6742249,368.6281128z"/>
			<path class="st9" d="M408.5576782,446.9016418c-24.8458862,20.5947876-50.1831665,38.5559082-71.3451538,50.5740356
				c-1.0319214,0.5866394-2.0362854,1.1481628-3.0117798,1.68573c0.6987915-0.8463745,1.4262085-1.7165222,2.1820984-2.6079407
				c0.0452271-0.0528564,0.0900269-0.1053467,0.1340637-0.1587219c15.7203674-18.5306396,38.0292053-40.0503845,62.8287048-60.60672
				c24.7116699-20.4835205,49.907196-38.3609314,70.9865112-50.3703918l0.1750488-0.0852356l0.3144226-0.1930542
				c0.9856873-0.559082,1.9470825-1.0964966,2.8807068-1.6109009c-0.7089233,0.8586731-1.4469299,1.7406311-2.2144165,2.6462708
				C455.752655,404.7407227,433.403595,426.3068542,408.5576782,446.9016418z"/>
		</g>
	</g>
</g>
<g id="RIGHT_LEG">
	<g>
		<path class="st8" d="M405.5726624,321.7993774c-9.9771423-34.2145386,22.8099976-35.2799683,22.8099976-35.2799683
			C433.3826599,315.859375,405.5726624,321.7993774,405.5726624,321.7993774z"/>
		<path class="st1" d="M402.0113525,296.1393127l20.6732788,14.6138611l6.6390686-9.8919373l-18.3564453-14.6138611
			C410.9672546,286.2473755,402.7242432,286.3373108,402.0113525,296.1393127z"/>
		<g>
			<polygon class="st8" points="449.4526672,320.5093994 440.1499939,307.3076172 430.5226746,309.149353 436.2926331,320.5093994 
							"/>
			<path class="st8" d="M441.4369812,314.9434814l-10.9099731-5.7900391l5.7699585,11.3599854h13.1600342
				c-3.1900024,13.5500488-8.2000122,32.9900513-14.2900391,35.5100098c-1.9799805,0.8200073-3.75,1.0400391-5.3200073,0.8400269
				c-4.9199829-0.6600342-7.7099609-5.6500244-7.8699951-10.1099854c-0.3599854-9.9800415-3.9199829-23.1600342-5.5299683-33.5
				c-1.5599976-10.1100464,0.75-16.5,8.0599976-16.9100342c0,0,12.3340149,2.3902893,22.0532532,9.0316162
				c2.8177185,1.9253845,4.0925598,5.4413452,3.3096619,8.7630615c-0.1040955,0.4416809-0.2032471,0.863739-0.2929077,1.2453613
				L441.4369812,314.9434814z"/>
			<path class="st9" d="M450.0198669,313.5029602c-0.1585388,0.6701965-0.3109436,1.3190918-0.4428711,1.8805237
				l-8.1400146-0.4400024l0.7880249-3.2949524c0.4653625-1.9458618,2.2949524-3.250061,4.2861633-3.0553894H446.5112
				C448.9257812,308.8292236,450.5783081,311.1419983,450.0198669,313.5029602z"/>
			<path class="st9" d="M427.1382141,355.2556152c-4.5184021-4.3009644-1.0894775-13.8614807,3.3844604-22.0462646
				c2.4099731-4.4099731,4.1900024-8.789978,5.7699585-12.6999512h11.3813782"/>
			<polyline class="st9" points="441.4369812,314.9434814 430.5226746,309.149353 436.2926331,320.5093994 448.0304565,320.5093994 
							"/>
		</g>
		<path class="st3" d="M405.5700073,321.7999878c0,0-39.5599976-29.9400024-46.6900024-39.5599976
			c-3.4500122-4.6699829-10.789978-22.7999878-17.6500244-41.7600098
			c-2.1199951-5.8399658-4.1999512-11.7600098-6.0899658-17.3900146
			c-4.6500244-13.7600098-8.2800293-25.7799683-9.0499878-30.6699829
			c-1.7800293-11.4099731,7.4799805-23.5299683,20.6699829-24.5999756S366.7199707,179.2299805,371,188.1400146
			c4.2800293,8.9099731,12.2399902,71.0899658,12.2399902,71.0899658l45.1400146,27.289978
			C428.3800049,286.5199585,400.1099854,293.0499878,405.5700073,321.7999878z"/>
		<path class="st7" d="M347.460022,213.4400024c-0.1500244,0.7199707-4.4900513,19.5100098-6.2300415,27.039978
			c-2.1199951-5.8399658-4.1999512-11.7600098-6.0899658-17.3900146L347.460022,213.4400024z"/>
		<path class="st7" d="M349.6153259,185.2233124c0,0,2.1386108,8.1437073,2.4147644,15.8528595l11.1297913,1.6769867
			l7.6907043-4.2721405c0,0,0-6.8961792-2.8194275-14.7377625
			C368.0311584,183.7432556,360.7836304,179.2827148,349.6153259,185.2233124z"/>
		<polyline class="st11" points="344.7440491,206.079895 368.9816589,271.6640625 400.8232422,294.1195068 		"/>
		<path class="st11" d="M399.6351318,313.7234497c0,0-1.7821655-24,22.6930542-29.2277222"/>
	</g>
</g>
<g id="LEFT_LEG">
	<g>
		<g>
			<path class="st8" d="M276.0513916,325.1195679c0,0,29.4459534-5.9504395,40.7524719-24.1188354
				C316.8038635,301.0007324,280.5468445,288.9909058,276.0513916,325.1195679z"/>
			<polygon class="st1" points="287.5761414,327.8522339 276.8830566,307.6542053 288.8830566,298.3868713 298.1503906,324.2878723 
							"/>
			<path class="st8" d="M319.8319092,353.1423035c-0.0400391,0.25-0.1000366,0.5200195-0.1799927,0.8099976
				c-0.0100098,0.0200195-0.0100098,0.039978-0.0200195,0.0599976c-0.8599854,2.4799805-4.1300049,4.7299805-4.1300049,4.7299805
				l-5-3.3299561l-3.3200073-5.1900024l0.8200073,17.0799561c0,0-3.9099731,4.6300049-14.7199707,9.2600098
				c-10.8100586,4.6400146-12.815094,1.438385-12.815094,1.438385c-4.5100098-9.2600098,0.9350891-14.3883972,5.6850891-23.6583557
				c4.75-9.2600098-0.6000366-21.3800049-0.6000366-21.3800049s-0.2299805-6.4199829,4.6400146-9.5100098
				s9.8599854-0.8300171,9.8599854-0.8300171c5.2300415,5.3500366,17.8200073,25.7800293,19.4800415,28.9899902
				C319.7918701,352.1122742,319.8718872,352.6222839,319.8319092,353.1423035z"/>
			<path class="st9" d="M281.6330566,376.2452087c2.1381836-2.8194885,7.6548462-8.7172852,20.0188599-15.3428955
				l1.4299927-17.7200317l3.2713013,5.6171875"/>
			<line class="st9" x1="301.6519165" y1="360.9023132" x2="306.3532104" y2="365.6406555"/>
			<path class="st9" d="M311.0821228,354.8647766c1.2951355-1.1806641,4.491272-3.8614502,6.8270569-3.8772888"/>
		</g>
		<path class="st3" d="M276.0513916,325.1195679c0,0,6.5346375-27.1485291,40.7524719-24.1188354l-19.0478821-41.0396423
			c0,0,33.1464844-26.0198059,43.6613159-34.2178345c10.5148621-8.1980133,8.3762512-43.3069305,0-52.2178192
			c-8.3762207-8.9108887-42.95047-6.9505005-38.6732483,26.9108887c0,0-38.3168335,36.3564453-43.6633606,47.4059448
			C253.7341461,258.8917847,276.0513916,325.1195679,276.0513916,325.1195679z"/>
		<path class="st11" d="M338.1879272,228.2648621c1.2238464-0.9566345,2.3126221-1.8068542,3.2293701-2.5216064
			c10.5148621-8.1980133,8.3762512-43.3069305,0-52.2178192"/>
		<path class="st7" d="M321.8133545,189.3274231c0,0,1.3146667,8.2120667,1.7821655,14.1386108l10.9306946,1.9009857
			l9.1485291-4.2772217c0,0-0.2376404-8.4356537-1.5445557-15.4455566
			C342.130188,185.6442413,332.9816589,183.3868256,321.8133545,189.3274231z"/>
		<g>
			<polyline class="st11" points="314.328186,182.6145477 316.1103821,200.6145477 268.5262146,251.0501862 
				281.8718872,300.1096497 			"/>
			<path class="st11" d="M274.5662231,315.3769836c0,0,7.8415833-22.1834412,37.0693054-18.6784973"/>
			<path class="st11" d="M272.4470215,251.4660339c0,0,10.7524719,6.1782227,22.3960266,7.6039429"/>
		</g>
	</g>
</g>
<g id="BODY">
	<g>
		<path class="st0" d="M303.7084961,94.8367996c0,0-15.93927,0.8800507-26.3152466,14.2663498l6.4308777,6.6239624
			l22.0506592-11.8344116L303.7084961,94.8367996z"/>
		<g>
			<path class="st0" d="M328.8232422,109.3670197c0,0,31.8415833,17.1089096,38.2574463,32.0792084
				c6.4158325,14.9702911-9.0297241,26.1386108-9.0297241,26.1386108L328.8232422,109.3670197z"/>
			<path class="st0" d="M375.6351318,188.4957275c-30.8910828-68.1980133-48.2676086-83.4311218-48.2676086-83.4311218
				s-17.9365234-6.4397736-33.5211487,1.6559677c-15.5846558,8.0957718-18.5487061,25.237648-18.5487061,25.237648
				s-1.8641968,16.6026154,1.3747864,22.745163c3.2390442,6.1425934,16.0865479,21.2164459,16.0865479,21.2164459
				c2.203064,11.1166229,2.8668518,21.7707367,1.1335449,31.7046204
				C293.8925476,207.6244507,338.1421509,177.1129761,375.6351318,188.4957275z"/>
			<path class="st2" d="M297.2192993,199.3076172c0,0,22.7980347-14.1935272,44.9108887-18.0594025
				c16.9900818-2.9703064,29.7029724,2.1386108,29.7029724,2.1386108"/>
			<path class="st2" d="M362.1999817,160.343338c-11.6021118-22.9597778-20.5162659-36.9530487-26.4216003-45.1150589"/>
			<path class="st2" d="M303.7463074,103.3568497c-3.2791443,0.6135025-6.6409607,1.6708221-9.8999023,3.3637543
				c-3.4984436,1.817337-6.3609314,4.0905075-8.6966553,6.5233002"/>
			<path class="st2" d="M275.297699,131.9582214c0,0-1.8642273,16.6026306,1.3747864,22.7451935
				c2.5823975,4.8973541,11.2725525,15.4720001,14.6896973,19.558075"/>
		</g>
	</g>
</g>
<g id="LEFT_ARM">
	<g>
		<g>
			<path class="st1" d="M218.3154449,66.5910416l-5.1683197-4.4554443c0,0-4.098999-15.2376251-4.2772217-16.3069305
				s-9.2673187-6.5049515-10.9603882-6.1485138c-1.6930695,0.3564339-0.534668,2.3168297-0.534668,2.3168297
				s-2.4950409-1.3366318-3.2970276-0.2673264c-0.8019714,1.0693092,1.4257507,3.029705,1.4257507,3.029705
				s-2.8514862-1.1584167-3.2970276,0.0891075c-0.4455566,1.2475243,2.4059296,3.5643578,2.4059296,3.5643578
				s-2.4950409-0.8910904-2.5841522,0.8019791s6.9505005,7.4851494,6.9505005,7.4851494s2.5841522,7.9306908,3.1188049,8.9108925
				c0.5346527,0.9801941,4.1881256,1.8712845,4.1881256,1.8712845l7.0395966,7.6633682L218.3154449,66.5910416z"/>
			<line class="st12" x1="198.8005981" y1="42.6207466" x2="205.929306" y2="47.2544098"/>
			<line class="st12" x1="196.305542" y1="45.3831215" x2="202.8996124" y2="49.7494583"/>
			<line class="st12" x1="195.7708893" y1="48.9474792" x2="200.8500977" y2="52.690052"/>
		</g>
		<path class="st0" d="M297.5444031,128.3789368c-4.0625305,4.3860474-10.4951172,5.6414948-15.9411926,3.1753082
			l-35.5480957-20.3844299c-4.9000244-2.2199707-9.3400269-5.3599854-13.0700073-9.2399902l-19.0835114-20.5819473
			l-4.8500366-5.0400391c-1.1900024-10.6599731,9.5-11.9099731,9.5-11.9099731l5.6000366,3.9699707l24.9334869,18.6319962
			l45.4334412,15.1813812c3.9436951,0.6674881,7.4783936,3.0740128,9.2068176,6.6810684
			C307.045166,115.7904282,302.3564758,123.1836777,297.5444031,128.3789368z"/>
		<path class="st2" d="M301.657074,123.1379089c-1.2143555,1.8988419-2.6578674,3.6703796-4.1126709,5.2410278
			c-4.0625305,4.3860474-10.4951172,5.6414948-15.9411926,3.1753082"/>
		<path class="st7" d="M216.1815643,71.5578384c-2.5199585,2.4100342-2.6499634,6.6000366-2.2799683,9.7900391l-4.8500366-5.0400391
			c-1.1900024-10.6599731,9.5-11.9099731,9.5-11.9099731l5.6000366,3.9699707
			C222.1415863,68.3878555,218.9615936,68.9078751,216.1815643,71.5578384z"/>
	</g>
</g>
<g id="NECK">
	<g>
		<polygon class="st1" points="282.8566895,94.1824722 286.1905212,99.4541473 289.570282,104.7976761 295.3074646,101.6686096 
			289.9638977,91.0229721 288.3346252,87.7802429 		"/>
		<path class="st8" d="M282.8566895,94.1824722l3.3338318,5.2716751c3.4266968-1.8714066,3.9815063-5.4970932,3.7733765-8.4311752
			l-1.6292725-3.2427292L282.8566895,94.1824722z"/>
	</g>
</g>
<g id="HEAD">
	<g>
		<path class="st1" d="M277.7687378,71.7716064c8.1334839,1.0412903,19.683075,20.2436523,8.1083679,25.9038315
			S261.1989746,69.6502533,277.7687378,71.7716064z"/>
		<path class="st8" d="M291.8647156,85.3901901c0,0-4.5813904-4.932457-8.9055786-7.4180527
			c0,0-5.3791199,7.3020401-12.3733826,7.4758606c-6.9942932,0.1738205-14.9895172-10.2610168-10.6603699-14.6077042
			c4.3291321-4.3466873,9.1785889-0.2131271,9.1785889-0.2131271S289.0854492,55.3295097,291.8647156,85.3901901z"/>
	</g>
</g>
<g id="FACE">
	<g>
		<path class="st1" d="M273.3084106,90.1789017c0.0890808,0.4752502,0.8910828,2.9405975,0.8910828,2.9405975
			s-0.9382629,0.6258011-0.7425842,1.4554443s2.8515015-0.3267365,2.8515015-0.3267365s-2.0792236-3.7128677-2.1386414-3.8019791
			C274.1103821,90.3571167,273.3084106,90.1789017,273.3084106,90.1789017z"/>
		<path class="st8" d="M277.3145752,86.2598267c0,0-2.4380188-2.0341644-3.9742126-0.1680374
			c0,0-0.3147888-0.5676956-0.8373718-0.3524246c-0.5226135,0.215271,0.1402283,1.8549576,0.1402283,1.8549576
			S274.9285583,86.350914,277.3145752,86.2598267z"/>
		<g>
			
				<ellipse transform="matrix(0.9015781 -0.4326163 0.4326163 0.9015781 -11.6874094 128.1982574)" class="st8" cx="275.9059753" cy="89.7853088" rx="1.192109" ry="1.4738803"/>
			<circle class="st6" cx="275.4428101" cy="89.4275665" r="0.3169926"/>
		</g>
		<g>
			<path class="st8" d="M275.1734619,95.3883667c0.3295288-0.1281891,0.6141968-0.3090134,0.8067627-0.4684906
				c0.1833191-0.1518097,0.2081299-0.4228439,0.0570984-0.6064835c-0.1508484-0.1832504-0.423584-0.2101135-0.606842-0.0592346
				c-0.0102539,0.0085068-0.9979858,0.8046951-1.6150208,0.2298279c-0.1333008-0.1240692-0.1229858-0.1940994-0.118988-0.2209854
				c0.039093-0.2657318,0.5734253-0.6603546,0.9440308-0.8434067c0.2110596-0.1038055,0.3002014-0.3582611,0.2003174-0.5708466
				l-1.2272644-2.6085587c-0.1020508-0.2158127-0.3589478-0.3031006-0.5743713-0.2070847
				c-0.2159729,0.1016464-0.308197,0.3586502-0.2070923,0.574379l1.0570374,2.246521
				c-0.3995361,0.2540054-0.9609375,0.7057343-1.0463562,1.2825241c-0.0369568,0.2490845-0.0003357,0.6210403,0.3846741,0.9795685
				C273.8320312,95.6786423,274.5760193,95.6207657,275.1734619,95.3883667z"/>
		</g>
		<path class="st6" d="M277.4901123,95.8002777c0.3105164,0.266098,0.6796265,0.5417328,1.0515137,0.8396454l2.6965637-1.6791687
			C281.2381897,94.9607544,278.9921265,94.1793671,277.4901123,95.8002777z"/>
	</g>
</g>
<g id="HAIR">
	<path class="st8" d="M266.9703064,75.0382156c0,0,0.014801-0.1437836,0.0645447-0.4021683
		c0.3513184-1.8249588,2.4453735-9.3667068,13.374054-12.3405685c12.4759521-3.3949089,21.0555725,6.0762024,21.2919617,14.9054031
		c0.2034607,7.5990448,9.681366,8.6358948,17.8822327,10.3934402c12.3927307,2.6559143,18.4459229,10.4656219,16.4855042,22.1260757
		c-2.5028381,14.8870544-38.5771179,20.697113-44.9108887,11.0468445
		c-6.3337402-9.6502762-4.2616882-20.5581589-8.4356384-28.6930695L266.9703064,75.0382156z"/>
</g>
<g id="EAR">
	<g>
		<path class="st1" d="M278.2173767,90.7941055c0,0-0.8551331-6.9246597,4.6780701-7.6255722
			c5.5331726-0.7009201,4.6376953,10.6785202-3.8326416,10.296402L278.2173767,90.7941055z"/>
		<g>
			<g>
				<path class="st8" d="M280.7445679,91.5206757c0.1342773-0.0522308,0.2297668-0.1827469,0.230072-0.335556
					c0.000061-0.0416107,0.0421143-4.1496582,2.8572693-5.7667313c0.1731262-0.0990982,0.2325439-0.3195114,0.1332397-0.4921799
					c-0.0992126-0.1734543-0.3203735-0.2318192-0.492157-0.1332321c-3.1808167,1.8265915-3.2199097,6.2056274-3.2199097,6.3912201
					c0,0.1991959,0.1610718,0.3606796,0.3602905,0.3606796C280.6595459,91.5450516,280.7038574,91.5365143,280.7445679,91.5206757z"
					/>
			</g>
			<g>
				<path class="st8" d="M283.2288208,89.8497467c0.1812439-0.0704956,0.2746582-0.2723999,0.2089233-0.4569778
					c-0.0167847-0.0460205-0.4215698-1.1468658-1.7511292-2.1355667c-0.159668-0.1189499-0.3865662-0.0862427-0.5044861,0.0741501
					c-0.118927,0.159668-0.0858459,0.3856735,0.0741577,0.5044937c1.1434021,0.8502045,1.4992065,1.7920761,1.5024414,1.8013992
					c0.0687561,0.1864395,0.2752686,0.2830048,0.4617615,0.2153702
					C283.2232361,89.8519211,283.2261963,89.850769,283.2288208,89.8497467z"/>
			</g>
		</g>
	</g>
</g>
<g id="GROUND">
	<g>
		<g>
			<g>
				<line class="st4" x1="433.2937622" y1="522.8352661" x2="545.4990234" y2="522.8352661"/>
				<line class="st4" x1="54.5009956" y1="522.8352661" x2="406.3645935" y2="522.8352661"/>
			</g>
			<g>
				<line class="st4" x1="165.9975739" y1="542.124939" x2="109.9253693" y2="542.124939"/>
				<line class="st4" x1="506.2007141" y1="542.124939" x2="184.2550659" y2="542.124939"/>
			</g>
			<g>
				<line class="st4" x1="349.8696899" y1="561.4146118" x2="387.8710938" y2="561.4146118"/>
				<line class="st4" x1="166.4354706" y1="561.4146118" x2="337.3284607" y2="561.4146118"/>
			</g>
		</g>
	</g>
</g>
</svg>
